<?xml version="1.0" encoding="UTF-8"?>
<svg width="220px" height="145px" viewBox="0 0 220 145" version="1.1" xmlns="http://www.w3.org/2000/svg" xmlns:xlink="http://www.w3.org/1999/xlink">
    <title>编组 2</title>
    <defs>
        <linearGradient x1="50%" y1="0.000651753214%" x2="50%" y2="98.5875116%" id="linearGradient-1">
            <stop stop-color="#DCDCE4" offset="0%"></stop>
            <stop stop-color="#DEDEE6" stop-opacity="0" offset="100%"></stop>
        </linearGradient>
        <linearGradient x1="17.4578195%" y1="49.9875054%" x2="85.5134967%" y2="51.2076782%" id="linearGradient-2">
            <stop stop-color="#EDEDF2" offset="0%"></stop>
            <stop stop-color="#F9F9FC" stop-opacity="0.88" offset="100%"></stop>
        </linearGradient>
        <linearGradient x1="18.6507588%" y1="11.0672877%" x2="18.6507588%" y2="97.1943664%" id="linearGradient-3">
            <stop stop-color="#EEEEEE" offset="0%"></stop>
            <stop stop-color="#DEDEE6" stop-opacity="0" offset="100%"></stop>
        </linearGradient>
        <linearGradient x1="49.9976349%" y1="3.87813793e-14%" x2="49.9976349%" y2="100%" id="linearGradient-4">
            <stop stop-color="#DCDCE4" offset="0%"></stop>
            <stop stop-color="#DEDEE6" stop-opacity="0" offset="100%"></stop>
        </linearGradient>
        <linearGradient x1="50%" y1="0%" x2="50%" y2="100%" id="linearGradient-5">
            <stop stop-color="#DCDCE4" offset="0%"></stop>
            <stop stop-color="#DEDEE6" stop-opacity="0" offset="100%"></stop>
        </linearGradient>
        <linearGradient x1="49.9996422%" y1="1.35081602e-14%" x2="49.9996422%" y2="100%" id="linearGradient-6">
            <stop stop-color="#FCFCFF" offset="0%"></stop>
            <stop stop-color="#FAFAFC" offset="100%"></stop>
        </linearGradient>
        <linearGradient x1="50.0014187%" y1="2.5934964%" x2="50.0014187%" y2="97.4973044%" id="linearGradient-7">
            <stop stop-color="#EBEBF2" offset="0%"></stop>
            <stop stop-color="#F8F8FA" offset="100%"></stop>
        </linearGradient>
        <linearGradient x1="49.7072901%" y1="34.1008655%" x2="32.6074918%" y2="69.1391328%" id="linearGradient-8">
            <stop stop-color="#FCFCFF" offset="0%"></stop>
            <stop stop-color="#F3F3F7" offset="100%"></stop>
        </linearGradient>
        <linearGradient x1="68.0190297%" y1="15.4243013%" x2="68.0190297%" y2="100%" id="linearGradient-9">
            <stop stop-color="#F4F4F9" offset="0%"></stop>
            <stop stop-color="#E2E2E9" offset="100%"></stop>
        </linearGradient>
        <linearGradient x1="60.0321139%" y1="29.2706285%" x2="43.1349595%" y2="72.1242583%" id="linearGradient-10">
            <stop stop-color="#FFD2C4" offset="0%"></stop>
            <stop stop-color="#FFB8A3" offset="100%"></stop>
        </linearGradient>
        <linearGradient x1="25.6424398%" y1="108.70896%" x2="43.8372222%" y2="13.2380179%" id="linearGradient-11">
            <stop stop-color="#FFD2C4" offset="0%"></stop>
            <stop stop-color="#FFB8A3" offset="100%"></stop>
        </linearGradient>
        <linearGradient x1="-24.5797784%" y1="45.3818234%" x2="70.5301723%" y2="63.4935204%" id="linearGradient-12">
            <stop stop-color="#FFD2C4" offset="0%"></stop>
            <stop stop-color="#FFB8A3" offset="100%"></stop>
        </linearGradient>
    </defs>
    <g id="POC阶段报告" stroke="none" stroke-width="1" fill="none" fill-rule="evenodd">
        <g id="标准画板备份-4" transform="translate(-530.000000, -244.000000)">
            <g id="编组-3" transform="translate(72.000000, 74.000000)">
                <g id="编组-2" transform="translate(458.000000, 170.000000)">
                    <rect id="矩形" x="3.97903932e-13" y="0" width="220" height="145"></rect>
                    <g id="编组" transform="translate(-0.000000, 0.000000)">
                        <path d="M14.682,27.567 C24.132,26.049 27.957,24.907 37.183,16.039 C46.41,7.171 55.765,20.109 69.641,14.915 C83.516,9.721 84.784,3.431 106.007,22.696 C115.79,30.884 123.571,27.642 128.366,30.884 C131.562,33.045 134.644,38.371 137.61,46.864 L14.682,46.864 C4.894,43.467 0,40.645 0,38.4 C0,35.031 5.232,29.084 14.682,27.567 L14.682,27.567 Z" id="路径" fill="url(#linearGradient-1)" fill-rule="nonzero" opacity="0.302"></path>
                        <path d="M214.456,114.815 C214.456,120.217 181.401,118.894 171.918,120.232 C156.013,122.476 190.274,132.598 132.523,133.73 C84.214,134.676 32.192,130.259 33.505,118.863 C34.818,107.466 73.241,101.255 121.9,101.255 C170.56,101.255 214.456,103.468 214.456,114.815 L214.456,114.815 Z" id="路径" fill="url(#linearGradient-2)"></path>
                        <polygon id="路径" fill="url(#linearGradient-3)" fill-rule="nonzero" opacity="0.302" points="0.145 73.105 0.145 136.225 22.943 144.604 22.943 79.083 0.145 73.105"></polygon>
                        <polygon id="路径" fill="url(#linearGradient-4)" fill-rule="nonzero" opacity="0.302" points="22.908 78.991 44.049 71.222 44.049 136.519 22.908 144.509"></polygon>
                        <polygon id="路径" fill="url(#linearGradient-5)" fill-rule="nonzero" opacity="0.302" points="0 73.042 21.534 65.131 44.044 71.271 22.896 79.044 1.42108547e-14 73.042"></polygon>
                        <path d="M192.352,0 L56.678,0 C56.1426198,0 55.629182,0.212747304 55.2507048,0.591412025 C54.8722277,0.970076746 54.6599998,1.48361988 54.6599998,2.019 L54.6599998,103.184 C54.6599998,104.298 55.563,105.202 56.678,105.202 L192.352,105.202 C193.466673,105.202 194.371,104.298672 194.371,103.184 L194.371,2.019 C194.371,0.90393709 193.467063,0 192.352,0 Z" id="路径" fill="url(#linearGradient-6)" fill-rule="nonzero"></path>
                        <path d="M102.236,70.682 L73.126,70.682 C72.5737153,70.682 72.126,71.1297153 72.126,71.682 L72.126,74.82 C72.126,75.3722847 72.5737153,75.82 73.126,75.82 L102.236,75.82 C102.788285,75.82 103.236,75.3722847 103.236,74.82 L103.236,71.682 C103.236,71.1297153 102.788285,70.682 102.236,70.682 L102.236,70.682 Z M86.681,79.83 L73.126,79.83 C72.5737153,79.83 72.126,80.2777153 72.126,80.83 L72.126,83.968 C72.126,84.5202847 72.5737153,84.968 73.126,84.968 L86.681,84.968 C87.2332847,84.968 87.681,84.5202847 87.681,83.968 L87.681,80.83 C87.681,80.2777153 87.2332847,79.83 86.681,79.83 Z M123.624,70.682 L109.097,70.682 C108.544715,70.682 108.097,71.1297153 108.097,71.682 L108.097,74.82 C108.097,75.3722847 108.544715,75.82 109.097,75.82 L123.624,75.82 C124.176285,75.82 124.624,75.3722847 124.624,74.82 L124.624,71.682 C124.624,71.1297153 124.176285,70.682 123.624,70.682 Z M174.179,70.682 L128.541,70.682 C127.988715,70.682 127.541,71.1297153 127.541,71.682 L127.541,74.82 C127.541,75.3722847 127.988715,75.82 128.541,75.82 L174.179,75.82 C174.731285,75.82 175.179,75.3722847 175.179,74.82 L175.179,71.682 C175.179,71.1297153 174.731285,70.682 174.179,70.682 Z M166.597,79.83 L109.097,79.83 C108.544715,79.83 108.097,80.2777153 108.097,80.83 L108.097,83.968 C108.097,84.5202847 108.544715,84.968 109.097,84.968 L166.597,84.968 C167.149285,84.968 167.597,84.5202847 167.597,83.968 L167.597,80.83 C167.597,80.2777153 167.149285,79.83 166.597,79.83 Z" id="形状" fill="#EBEBF2" fill-rule="nonzero"></path>
                        <path d="M126.873,59.845 C136.604,59.845 144.494,51.956 144.494,42.224 C144.494,32.492 136.604,24.603 126.873,24.603 C117.141,24.603 109.251,32.492 109.251,42.224 C109.251,51.956 117.141,59.845 126.873,59.845 L126.873,59.845 Z" id="路径" fill="url(#linearGradient-7)" fill-rule="nonzero"></path>
                        <path d="M219.012,6.125 L169.902,6.125 C169.501041,6.125 169.176,6.45004127 169.176,6.851 L169.176,43.569 C169.176,43.97 169.501,44.296 169.902,44.296 L219.012,44.296 C219.41312,44.2954483 219.738,43.9701208 219.738,43.569 L219.738,6.851 C219.738,6.45004127 219.412959,6.125 219.012,6.125 L219.012,6.125 Z" id="路径" fill="url(#linearGradient-8)" fill-rule="nonzero"></path>
                        <path d="M186.256,30.363 L175.997,30.363 C175.720858,30.363 175.497,30.5868576 175.497,30.863 L175.497,31.728 C175.497,32.0041424 175.720858,32.228 175.997,32.228 L186.256,32.228 C186.532142,32.228 186.756,32.0041424 186.756,31.728 L186.756,30.863 C186.756,30.5868576 186.532142,30.363 186.256,30.363 Z M180.627,33.683 L175.997,33.683 C175.720858,33.683 175.497,33.9068576 175.497,34.183 L175.497,35.047 C175.497,35.3231424 175.720858,35.547 175.997,35.547 L180.627,35.547 C180.903142,35.547 181.127,35.3231424 181.127,35.047 L181.127,34.183 C181.127,33.9068576 180.903142,33.683 180.627,33.683 Z M193.997,30.363 L189.016,30.363 C188.739858,30.363 188.516,30.5868576 188.516,30.863 L188.516,31.728 C188.516,32.0041424 188.739858,32.228 189.016,32.228 L193.997,32.228 C194.273142,32.228 194.497,32.0041424 194.497,31.728 L194.497,30.863 C194.497,30.5868576 194.273142,30.363 193.997,30.363 Z M212.294,30.363 L196.053,30.363 C195.776858,30.363 195.553,30.5868576 195.553,30.863 L195.553,31.728 C195.553,32.0041424 195.776858,32.228 196.053,32.228 L212.294,32.228 C212.570142,32.228 212.794,32.0041424 212.794,31.728 L212.794,30.863 C212.794,30.5868576 212.570142,30.363 212.294,30.363 Z M212.294,33.683 L189.016,33.683 C188.739858,33.683 188.516,33.9068576 188.516,34.183 L188.516,35.047 C188.516,35.3231424 188.739858,35.547 189.016,35.547 L212.294,35.547 C212.570142,35.547 212.794,35.3231424 212.794,35.047 L212.794,34.183 C212.794,33.9068576 212.570142,33.683 212.294,33.683 Z" id="形状" fill="#EBEBF2" fill-rule="nonzero"></path>
                        <path d="M201.484,75.161 C201.484,71.179027 198.255973,67.9509999 194.274,67.9509999 C192.361616,67.9507348 190.527467,68.7102405 189.175114,70.0624065 C187.82276,71.4145726 187.063,73.2486158 187.063,75.161 L187.063,86.753 C187.109508,90.7021292 190.324097,93.8790839 194.2735,93.8790839 C198.222903,93.8790839 201.437492,90.7021292 201.484,86.753 L201.484,75.161 Z" id="路径" stroke="#E2E2EA" stroke-width="3.877"></path>
                        <path d="M214.009,79.511 L174.538,79.511 C174.003065,79.5115512 173.569551,79.9450646 173.569,80.48 L173.569,116.145 C173.569551,116.679935 174.003065,117.113449 174.538,117.114 L214.009,117.114 C214.543935,117.113449 214.977449,116.679935 214.978,116.145 L214.978,80.48 C214.977449,79.9450646 214.543935,79.5115512 214.009,79.511 L214.009,79.511 Z" id="路径" fill="url(#linearGradient-9)" fill-rule="nonzero"></path>
                        <path d="M194.274,90.117 C197.200719,90.1192084 199.571657,92.4932809 199.570001,95.42 C199.571096,97.4124067 198.455108,99.2372334 196.681,100.144 L196.681,105.539 C196.680449,106.073935 196.246935,106.507449 195.712,106.508 L192.835,106.508 C192.300065,106.507449 191.866551,106.073935 191.866,105.539 L191.866,100.145 C190.091896,99.2377191 188.975989,97.4126371 188.976999,95.42 C188.976204,94.0143525 189.533832,92.6659606 190.527212,91.6714551 C191.520593,90.6769497 192.868353,90.1177954 194.274,90.117 L194.274,90.117 Z" id="路径" fill="#353564" fill-rule="nonzero"></path>
                        <path d="M39.411,112.013 C39.194,114.12 39.262,115.476 39.615,116.082 C40.144,116.991 39.478,117.984 38.471,117.41 C37.465,116.835 36.631,113.739 36.228,113.045 C35.824,112.352 34.492,110.723 37.217,110.18 C39.034,109.819 39.938,109.889 39.929,110.392 L40.203,111.596 L39.411,112.013 L39.411,112.013 Z M84.569,114.127 C86.66,114.731 88.068,114.945 88.793,114.766 C89.88,114.498 90.698,115.262 89.81,116.003 C88.923,116.743 85.506,116.833 84.676,117.038 C83.846,117.242 81.782,118.049 82.039,115.625 C82.211,114.009 82.553,113.255 83.065,113.363 L84.378,113.371 L84.569,114.127 L84.569,114.127 Z" id="形状" fill="#3E3E6E"></path>
                        <path d="M70.1,39.268 C71.305,41.019 71.098,45.188 69.862,45.939 C69.336,46.259 68.222,46.542 67.156,46.313 C67.262,46.866 67.361,47.339 67.453,47.73 C67.727,48.894 68.193,49.683 68.852,50.096 L62.143,49.74 C63.204,49.066 63.881,48.295 64.173,47.428 C64.362,46.869 64.497,45.953 64.578,44.682 C63.49,43.519 62.75,41.95 62.82,40.5 C62.992,36.941 68.894,37.516 70.1,39.268 L70.1,39.268 Z" id="路径" fill="url(#linearGradient-10)"></path>
                        <path d="M64.642,45.843 C63.849,43.482 61.687,40.697 61.858,39.628 C61.973,38.915 62.398,38.463 63.133,38.271 C63.404,36.857 64.605,36.228 66.736,36.383 C67.21,36.417 67.893,36.858 68.372,36.815 C69.229,36.739 69.507,36.659 70.099,36.696 C70.878,36.746 71.351,37.064 71.654,37.601 C72.026,38.261 71.71,39.219 70.821,39.857 C70.021,40.431 69.145,40.152 68.555,40.369 C68.159,40.515 67.598,41.376 66.87,42.954 L66.718,42.471 C66.342,41.511 65.89,41.148 65.362,41.383 C64.833,41.619 64.731,42.041 65.054,42.65 C65.426,43.832 65.591,44.595 65.549,44.939 C65.507,45.283 65.205,45.584 64.642,45.843 L64.642,45.843 Z" id="路径" fill="#353564"></path>
                        <path d="M60.938,56.275 C55.598,59.843 52.36,64.632 51.222,70.642 C51.2,72.085 53.185,73.662 51.52,74.248 C49.855,74.833 49.522,73.25 49.483,71.241 C49.443,69.232 48.478,62.647 50.662,59.333 C52.117,57.124 54.497,54.673 57.8,51.981 L60.938,56.275 L60.938,56.275 Z" id="路径" fill="url(#linearGradient-11)"></path>
                        <path d="M69.734,56.035 C70.504,58.031 72.351,60.406 75.278,63.161 C78.01,64.88 81.707,63.192 87.781,62.334 C91.418,62.414 92.857,60.007 91.8,59.426 C90.742,58.846 88.542,59.493 88.055,60.39 C87.731,60.988 84.203,60.628 77.473,59.31 L74.832,54.726 L69.734,56.035 Z" id="路径" fill="url(#linearGradient-12)"></path>
                        <path d="M71.322,62.045 C75.47,59.438 77.471,57.914 77.325,57.472 C77.106,56.809 74.663,52.974 73.312,51.824 C71.962,50.674 69.357,48.071 68.386,51.824 C67.739,54.325 68.717,57.733 71.322,62.045 L71.322,62.045 Z M53.081,55.058 C56.131,57.484 57.834,58.568 58.191,58.31 C58.726,57.923 64.874,54.676 65.522,53.146 C66.169,51.615 66.169,48.451 63.499,48.018 C61.719,47.729 58.247,50.075 53.081,55.058 L53.081,55.058 Z" id="形状" fill="#0364FF"></path>
                        <path d="M81.84,113.828 L84.853,113.481 C84.209,108.401 82.796,102.341 80.614,95.3 C78.433,88.258 75.815,81.906 72.761,76.242 L57.929,76.242 C61.08,81.145 63.704,84.949 65.801,87.655 C68.693,91.388 72.244,96.229 74.256,99.603 C78.456,106.647 80.984,111.389 81.84,113.828 L81.84,113.828 Z" id="路径" fill="#54A1FF"></path>
                        <path d="M38.675,109.502 L39.67,112.265 C51.214,111.113 57.765,104.333 60.286,101.918 C62.806,99.502 64.828,90.981 68.053,75.34 L55.669,73.984 C53.626,86.792 54.09,97.657 53.848,98.194 C53.607,98.732 47.607,106.276 38.675,109.502 Z" id="路径" fill="#54A1FF"></path>
                        <path d="M73.022,53.218 C73.315,52.093 73.351,55.728 73.128,64.124 C73.026,67.952 75.362,75.23 73.109,76.866 C70.032,79.101 53.833,78.94 53.833,77.483 C53.833,72.527 55.228,65.059 57.929,58.833 C60.092,53.849 59.911,48.787 63.261,48.042 C64.095,47.857 65.078,48.789 66.451,49.066 C67.606,49.299 68.293,48.772 69.163,49.066 C71.302,49.788 72.589,51.172 73.022,53.218 L73.022,53.218 Z" id="路径" fill="#0364FF"></path>
                    </g>
                </g>
            </g>
        </g>
    </g>
</svg>