<?xml version="1.0" encoding="UTF-8"?>
<svg width="80px" height="23px" viewBox="0 0 80 23" version="1.1" xmlns="http://www.w3.org/2000/svg" xmlns:xlink="http://www.w3.org/1999/xlink">
    <title>编组</title>
    <g id="POC阶段报告" stroke="none" stroke-width="1" fill="none" fill-rule="evenodd">
        <g id="标准画板备份-4" transform="translate(-40.000000, -30.000000)" fill="#FFFFFF" fill-rule="nonzero">
            <g id="编组" transform="translate(40.000000, 30.000000)">
                <g id="路径">
                    <g transform="translate(8.400000, 0.000000)">
                        <path d="M10.875769,1.27185496 C8.83583378,1.27185496 6.92412304,1.8218463 5.29217485,2.78433114 C5.29217485,1.24893866 4.02158662,0 2.44792229,0 L1.03745278,0 C0.466270912,0 0,0.458326113 0,1.0197756 L0,11.9623116 C0,11.9623116 0,11.9623116 0,11.9623116 C0,11.9623116 0,11.9623116 0,11.9623116 L0,12.2143909 L0,12.2029328 C0.058283864,14.4601889 0.815974096,16.5455727 2.07490556,18.2413793 C2.07490556,18.2413793 2.07490556,18.2413793 2.07490556,18.2413793 C4.97744199,17.5768064 8.50944414,16.419533 12.2396114,14.8612242 C15.8765246,13.3372899 19.1287642,11.6414833 21.6,10.0717163 C20.6907717,5.08741986 16.2378845,1.27185496 10.875769,1.27185496 Z"></path>
                        <path d="M8.86614679,19.8358027 C6.68647822,21.9841876 7.95986355,22.5212838 8.063111,22.5563118 C8.31549368,22.6497199 8.56787636,22.7314519 8.82025903,22.7898319 C9.48563154,22.918268 10.1854199,23 10.8966801,23 C16.7473695,23 21.5082245,18.224514 21.6,12.2931034 C17.2865506,14.3480803 12.7666063,16.6949573 8.86614679,19.8358027 Z"></path>
                    </g>
                    <path d="M37.4536859,2.63767469 C36.7046488,1.27859633 33.2475545,1.27859633 28.4767643,2.39783733 C28.3730515,2.42067899 28.3384806,2.54630808 28.4076224,2.62625386 C28.649619,2.86609122 28.880092,3.11734941 29.0990413,3.36860759 C29.1336122,3.40287007 29.1681832,3.4142909 29.2142778,3.4142909 C31.300058,3.16303271 32.7174667,3.35718677 33.1092707,4.06527801 C34.0657334,5.81266448 28.3845751,10.0383703 20.410211,13.4874599 C12.4358468,16.9479704 5.19899604,18.3298904 4.23100963,16.5825039 C3.85072926,15.8858335 4.53062447,14.7780133 6.00565137,13.4988808 C6.02869867,13.4760391 6.05174597,13.4417766 6.05174597,13.3960933 L6.05174597,12.2654315 C6.05174597,12.1626441 5.92498584,12.0941191 5.84432031,12.1512232 C1.77647268,14.86938 -0.620446035,17.4048035 0.140114711,18.7867235 C1.43076325,21.1279929 10.9492962,19.3806065 21.2168663,14.9379049 C31.4844364,10.4952034 38.7328108,4.97894414 37.4536859,2.63767469 Z"></path>
                </g>
                <path d="M79.3238968,8.32758621 C79.4870941,8.32758621 79.6153206,8.4788046 79.5920067,8.64165517 L79.5920067,8.64165517 L77.8318068,20.1807816 L79.7202331,20.1807816 C79.8717735,20.1807816 80,20.3087356 80,20.4483218 L80,20.4483218 L80,21.1462529 C80,21.2974713 79.8834305,21.4137931 79.7318901,21.4137931 L79.7318901,21.4137931 L66.2681099,21.4137931 C66.1165695,21.4137931 66,21.2974713 66,21.1462529 L66,21.1462529 L66,20.4483218 C66,20.2971034 66.1165695,20.1807816 66.2681099,20.1807816 L66.2681099,20.1807816 L75.2905912,20.1807816 L77.062448,8.56022989 C77.0857619,8.42064368 77.1906744,8.32758621 77.3305579,8.32758621 L77.3305579,8.32758621 Z M73.1194889,3.96551724 C73.247936,3.96551724 73.364706,4.07031939 73.38806,4.1984109 L73.38806,4.1984109 L73.563215,5.26972174 L79.7403497,5.26972174 C79.8921508,5.26972174 80.0205978,5.39781326 79.9972438,5.52590477 L79.9972438,5.52590477 L79.9972438,6.34103258 C79.9972438,6.49241346 79.8804738,6.60886029 79.7286727,6.60886029 L79.7286727,6.60886029 L66.043225,6.60886029 L66.043225,14.666981 C66.043225,17.566507 65.3893128,19.220052 64.4668296,20.1982054 C63.7195014,20.9900439 63.0072042,21.3393843 62.563478,21.4092524 C62.481739,21.4325418 62.4,21.3626737 62.4,21.2811609 L62.4,21.2811609 L62.4,20.7920842 C62.4,20.7687949 62.411677,20.7455055 62.423354,20.7222161 C63.0655892,19.7906415 63.3224833,17.8110454 63.3224833,14.6786256 L63.3224833,14.6786256 L63.3224833,5.80537716 C63.3224833,5.5026154 63.5677003,5.25807706 63.8713024,5.25807706 L63.8713024,5.25807706 L70.8424733,5.25807706 L70.6789953,4.27992368 C70.6556412,4.11689812 70.7840883,3.96551724 70.9475663,3.96551724 L70.9475663,3.96551724 Z M72.9899439,8.32758621 C73.1165731,8.32758621 73.2316906,8.43453634 73.2547141,8.56525317 L73.2547141,8.56525317 L74.7972886,18.7136324 C74.8203121,18.8799992 74.6936828,19.0344828 74.5325183,19.0344828 L74.5325183,19.0344828 L72.6100561,19.0344828 C72.4834269,19.0344828 72.3683094,18.939416 72.3452859,18.7968158 L72.3452859,18.7968158 L70.8027114,8.6484366 C70.7796879,8.48206973 70.9063172,8.32758621 71.0674817,8.32758621 L71.0674817,8.32758621 Z M68.9899439,8.32758621 C69.1165731,8.32758621 69.2316906,8.42265299 69.2547141,8.56525317 L69.2547141,8.56525317 L70.7972886,18.7136324 C70.8203121,18.8799992 70.6936828,19.0344828 70.5325183,19.0344828 L70.5325183,19.0344828 L68.6100561,19.0344828 C68.4834269,19.0344828 68.3683094,18.9275326 68.3452859,18.7968158 L68.3452859,18.7968158 L66.8027114,8.6484366 C66.7796879,8.48206973 66.9063172,8.32758621 67.0674817,8.32758621 L67.0674817,8.32758621 Z M59.7198939,4.75862069 L42.668435,4.75862069 C42.5167109,4.75862069 42.4,4.8758281 42.4,5.02819772 L42.4,5.84864957 C42.4,6.00101919 42.5167109,6.1182266 42.668435,6.1182266 L49.5193634,6.1182266 L48.7023873,8.83743842 L43.602122,8.83743842 C43.2986737,8.83743842 43.065252,9.08357398 43.065252,9.37659249 L43.065252,20.874639 C43.065252,21.1793783 43.3103448,21.4137931 43.602122,21.4137931 L58.7862069,21.4137931 C59.0896552,21.4137931 59.3230769,21.1676576 59.3230769,20.874639 L59.3230769,9.37659249 C59.3230769,9.07185324 59.0779841,8.83743842 58.7862069,8.83743842 L51.4217507,8.83743842 L52.2387268,6.1182266 L59.731565,6.1182266 C59.8832891,6.1182266 60,6.00101919 60,5.84864957 L60,5.02819772 C59.9883289,4.8758281 59.871618,4.75862069 59.7198939,4.75862069 Z M45.6,20.6206897 L45.6,16.2586207 L56.4,16.2586207 L56.4,20.6206897 L45.6,20.6206897 Z M56.4,9.9137931 L56.4,14.2758621 L45.6,14.2758621 L45.6,9.9137931 L56.4,9.9137931 Z" id="形状结合"></path>
            </g>
        </g>
    </g>
</svg>